<?xml version="1.0" encoding="UTF-8"?>
<svg id="Layer_3" data-name="Layer 3" xmlns="http://www.w3.org/2000/svg" viewBox="0 0 100 100">
  <defs>
    <style>
      .cls-1 {
        fill: #fff;
      }

      .cls-2 {
        fill: #39b54a;
      }
    </style>
  </defs>
  <circle class="cls-1" cx="50.5" cy="50" r="48"/>
  <path class="cls-2" d="M75.31,15H25.72c-1.48,.39-2.65,1.55-3.03,3.03v63.51c.32,1.74,1.69,3.11,3.42,3.42h48.64c1.76-.26,3.17-1.61,3.54-3.34V18.12c-.35-1.5-1.5-2.7-2.97-3.12ZM31.36,23.96h37.83v8.39H31.36v-8.39Zm18.98,23.11c-2.36,0-4.27-1.91-4.27-4.27s1.91-4.27,4.27-4.27,4.27,1.91,4.27,4.27-1.91,4.27-4.27,4.27Zm4.2,10.31c0,2.36-1.91,4.27-4.27,4.27s-4.27-1.91-4.27-4.27,1.91-4.27,4.27-4.27,4.27,1.91,4.27,4.27Zm-14.36-14.65c0,2.36-1.91,4.27-4.27,4.27s-4.27-1.91-4.27-4.27,1.91-4.27,4.27-4.27,4.27,1.91,4.27,4.27Zm-4.34,10.31c2.36,0,4.27,1.91,4.27,4.27s-1.91,4.27-4.27,4.27-4.27-1.91-4.27-4.27,1.91-4.27,4.27-4.27Zm15.36,23.14s-.09,.01-.14,.02v.02h-15.31c-2.27,0-4.1-1.91-4.1-4.27s1.84-4.27,4.1-4.27h15.31v.02s.1,0,.14,.02c2.01,.28,3.56,2.06,3.56,4.23s-1.55,3.95-3.56,4.23Zm13.79,.18c-2.36,0-4.27-1.91-4.27-4.27s1.91-4.27,4.27-4.27,4.27,1.91,4.27,4.27-1.91,4.27-4.27,4.27Zm-4.34-18.98c0-2.36,1.91-4.27,4.27-4.27s4.27,1.91,4.27,4.27-1.91,4.27-4.27,4.27-4.27-1.91-4.27-4.27Zm4.34-10.31c-2.36,0-4.27-1.91-4.27-4.27s1.91-4.27,4.27-4.27,4.27,1.91,4.27,4.27-1.91,4.27-4.27,4.27Z"/>
</svg>