<?xml version="1.0" encoding="UTF-8"?>
<svg id="Layer_3" data-name="Layer 3" xmlns="http://www.w3.org/2000/svg" viewBox="0 0 100 100">
  <defs>
    <style>
      .cls-1 {
        fill: #f9f9f9;
      }
    </style>
  </defs>
  <path class="cls-1" d="M70.96,21.24H28.58c-1.27,.33-2.26,1.33-2.59,2.59v54.27c.27,1.49,1.44,2.66,2.93,2.93h41.57c1.51-.23,2.71-1.38,3.02-2.85V23.91c-.3-1.29-1.28-2.31-2.54-2.67Zm-37.56,7.66h32.33v7.17H33.4v-7.17Zm16.22,19.75c-2.01,0-3.65-1.63-3.65-3.65s1.63-3.65,3.65-3.65,3.65,1.63,3.65,3.65-1.63,3.65-3.65,3.65Zm3.59,8.81c0,2.01-1.63,3.65-3.65,3.65s-3.65-1.63-3.65-3.65,1.63-3.65,3.65-3.65,3.65,1.63,3.65,3.65Zm-12.27-12.52c0,2.01-1.63,3.65-3.65,3.65s-3.65-1.63-3.65-3.65,1.63-3.65,3.65-3.65,3.65,1.63,3.65,3.65Zm-3.71,8.81c2.01,0,3.65,1.63,3.65,3.65s-1.63,3.65-3.65,3.65-3.65-1.63-3.65-3.65,1.63-3.65,3.65-3.65Zm13.12,19.78s-.08,.01-.12,.01v.02h-13.08c-1.94,0-3.51-1.63-3.51-3.65s1.57-3.65,3.51-3.65h13.08v.02s.08,0,.12,.01c1.72,.24,3.04,1.76,3.04,3.61s-1.32,3.38-3.04,3.61Zm11.79,.15c-2.01,0-3.65-1.63-3.65-3.65s1.63-3.65,3.65-3.65,3.65,1.63,3.65,3.65-1.63,3.65-3.65,3.65Zm-3.71-16.22c0-2.01,1.63-3.65,3.65-3.65s3.65,1.63,3.65,3.65-1.63,3.65-3.65,3.65-3.65-1.63-3.65-3.65Zm3.71-8.81c-2.01,0-3.65-1.63-3.65-3.65s1.63-3.65,3.65-3.65,3.65,1.63,3.65,3.65-1.63,3.65-3.65,3.65Z"/>
</svg>